<mxfile host="app.diagrams.net" modified="2024-04-13T03:32:30.398Z" agent="Mozilla/5.0 (Windows NT 10.0; Win64; x64) AppleWebKit/537.36 (KHTML, like Gecko) Chrome/123.0.0.0 Safari/537.36" version="24.2.3" etag="-Wm29Aom5UIMIqvg9a94" type="github">
  <diagram name="第 1 页" id="27t6XMyVxRSfscTJFfou">
    <mxGraphModel>
      <root>
        <mxCell id="0" />
        <mxCell id="1" parent="0" />
      </root>
    </mxGraphModel>
  </diagram>
</mxfile>
